<svg xmlns="http://www.w3.org/2000/svg" width="420" height="420" viewBox="0 0 420 420">
  <defs>
    <!-- stella marina -->
    <g id="star" stroke-linejoin="round" stroke-linecap="round">
      <path d="M15,1 L19,11 L29,11 L21,18 L24,28 L15,22 L6,28 L9,18 L1,11 L11,11 Z"/>
      <circle cx="15" cy="15" r="0.6"/>
      <circle cx="11" cy="13" r="0.5"/><circle cx="19" cy="13" r="0.5"/>
    </g>
    <!-- conchiglia a ventaglio -->
    <g id="shell" stroke-linejoin="round" stroke-linecap="round">
      <path d="M3,20 Q15,-3 27,20 Z"/>
      <path d="M15,20 L8,9"/><path d="M15,20 L15,6"/><path d="M15,20 L22,9"/>
    </g>
    <!-- palma -->
    <g id="palm" stroke-linejoin="round" stroke-linecap="round">
      <path d="M15,30 Q13,21 15,12"/>
      <path d="M15,12 Q6,9 1,13"/><path d="M15,12 Q6,4 3,3"/>
      <path d="M15,12 Q15,4 15,0"/>
      <path d="M15,12 Q24,4 27,3"/><path d="M15,12 Q24,9 29,13"/>
    </g>
    <!-- furgoncino hippy -->
    <g id="van" stroke-linejoin="round" stroke-linecap="round">
      <path d="M2,11 Q2,8 5,8 L25,8 Q29,8 29,11 L29,21 L2,21 Z"/>
      <path d="M5,11 L13,11 L13,15 L5,15 Z"/>
      <path d="M16,11 L26,11 L26,15 L16,15 Z"/>
      <path d="M2,16 L29,16"/>
      <circle cx="9" cy="21" r="2.6"/><circle cx="22" cy="21" r="2.6"/>
    </g>
  </defs>
  <g fill="none" stroke="#a06a2e" stroke-opacity="0.16" stroke-width="1.3">
    <use href="#star" transform="translate(34,46) rotate(-16)"/>
    <use href="#shell" transform="translate(168,26) rotate(18)"/>
    <use href="#van" transform="translate(286,60) rotate(-7)"/>
    <use href="#palm" transform="translate(96,150) rotate(9)"/>
    <use href="#shell" transform="translate(232,168) rotate(-22)"/>
    <use href="#star" transform="translate(344,210) rotate(24)"/>
    <use href="#van" transform="translate(40,240) rotate(11)"/>
    <use href="#palm" transform="translate(196,290) rotate(-12)"/>
    <use href="#shell" transform="translate(330,330) rotate(34)"/>
    <use href="#star" transform="translate(150,360) rotate(-28)"/>
    <use href="#palm" transform="translate(300,392) rotate(6) scale(0.9)"/>
    <use href="#shell" transform="translate(70,372) rotate(46)"/>
  </g>
</svg>
