<svg xmlns="http://www.w3.org/2000/svg" width="420" height="420" viewBox="0 0 420 420">
  <defs>
    <!-- stella marina -->
    <g id="star" stroke-linejoin="round" stroke-linecap="round">
      <path d="M15,1 L19,11 L29,11 L21,18 L24,28 L15,22 L6,28 L9,18 L1,11 L11,11 Z"/>
      <circle cx="15" cy="15" r="0.6"/>
      <circle cx="11" cy="13" r="0.5"/><circle cx="19" cy="13" r="0.5"/>
    </g>
    <!-- conchiglia (capasanta): bordo ondulato, coste e cerniera -->
    <g id="shell" stroke-linejoin="round" stroke-linecap="round">
      <path d="M15,22 L4,11 Q5,7 8,8 Q9,4 12,7 Q13,3 15,6 Q17,3 18,7 Q21,4 22,8 Q25,7 26,11 Z"/>
      <path d="M15,22 L9,9"/><path d="M15,22 L12,7.5"/><path d="M15,22 L15,7"/>
      <path d="M15,22 L18,7.5"/><path d="M15,22 L21,9"/>
      <path d="M12.5,21 Q15,23.5 17.5,21"/>
    </g>
    <!-- palma: tronco curvo, foglie a lente, due cocchi -->
    <g id="palm" stroke-linejoin="round" stroke-linecap="round">
      <path d="M15,11 Q14,20 16,30"/>
      <path d="M15,11 Q7,7 1,12 Q8,12 15,11 Z"/>
      <path d="M15,11 Q9,4 4,3 Q11,8 15,11 Z"/>
      <path d="M15,11 Q12,3 15,-1 Q18,3 15,11 Z"/>
      <path d="M15,11 Q21,4 26,3 Q19,8 15,11 Z"/>
      <path d="M15,11 Q23,7 29,12 Q22,12 15,11 Z"/>
      <circle cx="13" cy="12.5" r="1"/><circle cx="17" cy="12.5" r="1"/>
    </g>
    <!-- bussola -->
    <g id="compass" stroke-linejoin="round" stroke-linecap="round">
      <circle cx="15" cy="15" r="13"/>
      <circle cx="15" cy="15" r="9.5"/>
      <path d="M15,5.5 L18,15 L15,24.5 L12,15 Z"/>
      <path d="M5.5,15 L15,12 L24.5,15 L15,18 Z"/>
      <circle cx="15" cy="15" r="0.8"/>
    </g>
    <!-- furgoncino hippy -->
    <g id="van" stroke-linejoin="round" stroke-linecap="round">
      <path d="M2,11 Q2,8 5,8 L25,8 Q29,8 29,11 L29,21 L2,21 Z"/>
      <path d="M5,11 L13,11 L13,15 L5,15 Z"/>
      <path d="M16,11 L26,11 L26,15 L16,15 Z"/>
      <path d="M2,16 L29,16"/>
      <circle cx="9" cy="21" r="2.6"/><circle cx="22" cy="21" r="2.6"/>
    </g>
  </defs>
  <g fill="none" stroke="#a06a2e" stroke-opacity="0.16" stroke-width="1.3">
    <use href="#star" transform="translate(34,46) rotate(-16)"/>
    <use href="#shell" transform="translate(168,24) rotate(14)"/>
    <use href="#van" transform="translate(286,60) rotate(-7)"/>
    <use href="#palm" transform="translate(250,116) rotate(-14)"/>
    <use href="#palm" transform="translate(96,150) rotate(9)"/>
    <use href="#shell" transform="translate(232,168) rotate(-20)"/>
    <use href="#star" transform="translate(344,206) rotate(24)"/>
    <use href="#van" transform="translate(150,206) rotate(8)"/>
    <use href="#van" transform="translate(40,250) rotate(11)"/>
    <use href="#shell" transform="translate(360,118) rotate(-8)"/>
    <use href="#star" transform="translate(252,250) rotate(12)"/>
    <use href="#palm" transform="translate(196,300) rotate(-12)"/>
    <use href="#shell" transform="translate(330,330) rotate(30)"/>
    <use href="#star" transform="translate(120,330) rotate(-26)"/>
    <use href="#palm" transform="translate(360,288) rotate(14)"/>
    <use href="#shell" transform="translate(60,372) rotate(42)"/>
    <use href="#van" transform="translate(250,372) rotate(-6)"/>
    <use href="#star" transform="translate(360,388) rotate(18)"/>
    <use href="#compass" transform="translate(106,86) rotate(8)"/>
    <use href="#compass" transform="translate(318,250) rotate(-12)"/>
    <use href="#compass" transform="translate(300,358) rotate(15)"/>
  </g>
</svg>
